<svg width="19" height="19" viewBox="0 0 19 19" fill="none" xmlns="http://www.w3.org/2000/svg">
<g clip-path="url(#clip0_215_4222)">
<path d="M15.5283 18.1537H3.13913C2.43032 18.1522 1.75098 17.87 1.24977 17.3688C0.748573 16.8675 0.466338 16.1882 0.464844 15.4794V4.68454C0.466205 3.97525 0.748749 3.29543 1.25054 2.79413C1.75232 2.29282 2.43241 2.01093 3.1417 2.01025H15.5308C16.2401 2.01161 16.92 2.29416 17.4213 2.79595C17.9226 3.29773 18.2045 3.97782 18.2051 4.68711V15.4768C18.2043 16.1865 17.922 16.8669 17.4202 17.3687C16.9184 17.8706 16.238 18.1529 15.5283 18.1537ZM3.13913 3.2934C2.7703 3.29381 2.4167 3.4405 2.15589 3.7013C1.89509 3.96211 1.74839 4.31571 1.74799 4.68454V15.4768C1.74921 15.8452 1.89625 16.198 2.15695 16.4583C2.41765 16.7185 2.77079 16.8649 3.13913 16.8654H15.5283C15.8962 16.8643 16.2488 16.7177 16.5089 16.4575C16.7691 16.1973 16.9158 15.8448 16.9168 15.4768V4.68454C16.9159 4.31656 16.7693 3.96392 16.5091 3.70372C16.2489 3.44352 15.8963 3.29692 15.5283 3.29597L3.13913 3.2934Z" fill="#138FC2"/>
<path d="M17.5623 9.19538H1.12626C0.955759 9.19538 0.792246 9.12765 0.671687 9.00709C0.551128 8.88653 0.483398 8.72302 0.483398 8.55252C0.483398 8.38203 0.551128 8.21852 0.671687 8.09796C0.792246 7.9774 0.955759 7.90967 1.12626 7.90967H17.5623C17.7328 7.90967 17.8963 7.9774 18.0169 8.09796C18.1374 8.21852 18.2052 8.38203 18.2052 8.55252C18.2052 8.72302 18.1374 8.88653 18.0169 9.00709C17.8963 9.12765 17.7328 9.19538 17.5623 9.19538Z" fill="#138FC2"/>
<path d="M5.19828 4.99036C5.11384 4.99043 5.03021 4.97384 4.95219 4.94156C4.87416 4.90928 4.80327 4.86193 4.74356 4.80222C4.68385 4.74251 4.6365 4.67162 4.60422 4.59359C4.57193 4.51557 4.55535 4.43194 4.55542 4.3475V1.0535C4.55542 0.883005 4.62315 0.719492 4.74371 0.598933C4.86427 0.478374 5.02778 0.410645 5.19828 0.410645C5.36877 0.410645 5.53229 0.478374 5.65285 0.598933C5.7734 0.719492 5.84113 0.883005 5.84113 1.0535V4.3475C5.84113 4.518 5.7734 4.68151 5.65285 4.80207C5.53229 4.92263 5.36877 4.99036 5.19828 4.99036Z" fill="#138FC2"/>
<path d="M13.4695 4.99036C13.3851 4.99043 13.3015 4.97384 13.2234 4.94156C13.1454 4.90928 13.0745 4.86193 13.0148 4.80222C12.9551 4.74251 12.9077 4.67162 12.8755 4.59359C12.8432 4.51557 12.8266 4.43194 12.8267 4.3475V1.0535C12.8267 0.883005 12.8944 0.719492 13.0149 0.598933C13.1355 0.478374 13.299 0.410645 13.4695 0.410645C13.64 0.410645 13.8035 0.478374 13.9241 0.598933C14.0446 0.719492 14.1124 0.883005 14.1124 1.0535V4.3475C14.1124 4.518 14.0446 4.68151 13.9241 4.80207C13.8035 4.92263 13.64 4.99036 13.4695 4.99036Z" fill="#138FC2"/>
</g>
<defs>
<clipPath id="clip0_215_4222">
<rect width="18" height="18" fill="white" transform="translate(0.33374 0.282227)"/>
</clipPath>
</defs>
</svg>
