<svg width="23" height="25" viewBox="0 0 23 25" fill="none" xmlns="http://www.w3.org/2000/svg">
<path fill-rule="evenodd" clip-rule="evenodd" d="M17.6472 16.7815C19.3059 16.7815 20.6547 18.1304 20.6547 19.789C20.6547 21.4477 19.3059 22.7965 17.6472 22.7965C15.9886 22.7965 14.6397 21.4477 14.6397 19.789C14.6397 19.5259 14.6848 19.2747 14.748 19.0311C14.8788 18.5319 15.1299 18.0807 15.4773 17.7168C16.0247 17.1439 16.7931 16.7815 17.6472 16.7815ZM4.67729 9.26269C5.52242 9.26269 6.2833 9.61457 6.83067 10.177C7.18105 10.5379 7.43218 10.9875 7.56751 11.4868C7.63669 11.7379 7.68482 11.9965 7.68482 12.2702C7.68482 12.5725 7.62617 12.8612 7.54195 13.1364C7.39308 13.6296 7.12993 14.0732 6.76752 14.4251C6.22617 14.9499 5.49083 15.2777 4.67729 15.2777C3.01865 15.2777 1.66978 13.9289 1.66978 12.2702C1.66978 10.6116 3.01865 9.26269 4.67729 9.26269ZM17.6472 1.80406C19.3059 1.80406 20.6547 3.15293 20.6547 4.81157C20.6547 6.47022 19.3059 7.81909 17.6472 7.81909C16.8036 7.81909 16.0442 7.46872 15.4983 6.90932C15.1465 6.54842 14.8938 6.09879 14.7585 5.59954C14.6893 5.34692 14.6397 5.08676 14.6397 4.81157C14.6397 3.15293 15.9886 1.80406 17.6472 1.80406ZM17.6472 15.2777C16.2367 15.2777 14.9901 15.9409 14.163 16.9589L8.87128 13.9033C9.06978 13.395 9.18858 12.8476 9.18858 12.2702C9.18858 11.7228 9.07579 11.2055 8.89684 10.7198L14.1841 7.66571C15.0126 8.6687 16.2487 9.32283 17.6472 9.32283C20.1344 9.32283 22.1585 7.29878 22.1585 4.81156C22.1585 2.32436 20.1345 0.300293 17.6472 0.300293C15.16 0.300293 13.1359 2.32436 13.1359 4.81157C13.1359 5.36044 13.2487 5.88074 13.4292 6.36646L8.14345 9.41908C7.31639 8.41458 6.0788 7.75894 4.67729 7.75894C2.19008 7.75894 0.166016 9.78301 0.166016 12.2702C0.166016 14.7574 2.19008 16.7815 4.67729 16.7815C6.04722 16.7815 7.26225 16.1544 8.08933 15.1875L13.4187 18.2642C13.2457 18.7439 13.1359 19.2522 13.1359 19.789C13.1359 22.2762 15.16 24.3003 17.6472 24.3003C20.1344 24.3003 22.1585 22.2762 22.1585 19.789C22.1585 17.3018 20.1344 15.2777 17.6472 15.2777Z" fill="black"/>
</svg>
